PathFileType	4	(X/Y/Z)	/Users/niels/Desktop/University/Third Semester/Perception and Action/Exam/Gymnastics Motion Tracking/Code for Gym Tracking/Analyzed Data/Webcam_Backflip/id6_4_pure_Sports2D/id6_4_pure_Sports2D_px_person00.trc
DataRate	CameraRate	NumFrames	NumMarkers	Units	OrigDataRate	OrigDataStartFrame	OrigNumFrames
29.8125	29.8125	8	22	m	29.8125	20	160
Frame#	Time	Hip			RHip			RKnee			RAnkle			RBigToe			RSmallToe			RHeel			LHip			LKnee			LAnkle			LBigToe			LSmallToe			LHeel			Neck			Head			Nose			RShoulder			RElbow			RWrist			LShoulder			LElbow			LWrist		
		X1	Y1	Z1	X2	Y2	Z2	X3	Y3	Z3	X4	Y4	Z4	X5	Y5	Z5	X6	Y6	Z6	X7	Y7	Z7	X8	Y8	Z8	X9	Y9	Z9	X10	Y10	Z10	X11	Y11	Z11	X12	Y12	Z12	X13	Y13	Z13	X14	Y14	Z14	X15	Y15	Z15	X16	Y16	Z16	X17	Y17	Z17	X18	Y18	Z18	X19	Y19	Z19	X20	Y20	Z20	X21	Y21	Z21	X22	Y22	Z22
20	0.670859538784067	0.9549395699710324	-0.5617901498290853	0.0	0.9561017994051537	-0.5625058135534922	0.0	1.0150775915605563	-0.630984546425875	0.0	0.9927801784417507	-0.7297511985953986	0.0	1.0007078402044278	-0.7639408739368511	0.0	0.9966637747590013	-0.7622008210532965	0.0	0.983281659030034	-0.7449737101306392	0.0	0.9546122642912784	-0.5596942194417955	0.0	1.0104548199508572	-0.6291830935962172	0.0	0.9912160180499848	-0.7286083377761222	0.0	1.0018993366069089	-0.7596186893908089	0.0	0.9992310038416583	-0.7582492697144958	0.0	0.9800112430043875	-0.7424780340231778	0.0	0.8956513038370608	-0.43611302463319856	0.0	0.8723629822072697	-0.38346306422895565	0.0	0.9045135294527534	-0.39623977371662794	0.0	0.902694641564449	-0.4444241760117671	0.0	0.9475238690325368	-0.39798860332898506	0.0	0.9545583987876571	-0.33733085184470935	0.0	0.8961367267479725	-0.44488521463413433	0.0	0.9416645288441285	-0.39870980235215997	0.0	0.9473316917597759	-0.34343514933400227	0.0
21	0.7044025157232703	0.9521758735171003	-0.5342547325623177	0.0	0.9538802887986683	-0.5357587296471454	0.0	1.023899067825388	-0.5766768307390092	0.0	1.0065052725913703	-0.6759359641381116	0.0	1.013683350076052	-0.7139697953391385	0.0	1.0110260481227609	-0.7117822523240209	0.0	0.9978522193325329	-0.6923739566716283	0.0	0.9517612182105275	-0.5319658929519353	0.0	1.0190112646308473	-0.5753208102545346	0.0	1.0048331348473454	-0.6747503810276964	0.0	1.0154469290055732	-0.7086938742609162	0.0	1.013430464372394	-0.7089027215473465	0.0	0.9950762576082276	-0.6916286484473572	0.0	0.8803626201055851	-0.4147907590299685	0.0	0.8522834327254544	-0.36339601540797134	0.0	0.8865988697688626	-0.3744742772167866	0.0	0.8881187620340751	-0.42301144654711276	0.0	0.9342252619836083	-0.3789800614459889	0.0	0.9440013799825326	-0.31840348214218145	0.0	0.8826308065461358	-0.42351371159282164	0.0	0.9290309566301105	-0.37932482192044786	0.0	0.9366114588209375	-0.3248068405801242	0.0
22	0.7379454926624737	0.9500587541414062	-0.5094900869040487	0.0	0.9524828258860503	-0.5114670755513345	0.0	1.0271496914741638	-0.517970171425993	0.0	1.0197636899415712	-0.6149748238711109	0.0	1.0290205001118058	-0.652609157030257	0.0	1.0279360801973085	-0.650623521908985	0.0	1.0129567142170173	-0.6322973949503055	0.0	0.9494970078475572	-0.506903003654929	0.0	1.0219926876656906	-0.5177631153695612	0.0	1.0177835867961964	-0.6137870598035622	0.0	1.0303150341874452	-0.6464803521322979	0.0	1.0287477046417723	-0.648793572422532	0.0	1.0108902990355588	-0.6328995160167157	0.0	0.8665518700813203	-0.39917132338960415	0.0	0.8326889850821659	-0.35009224150463997	0.0	0.8693111120606922	-0.35867343947019714	0.0	0.875284806975064	-0.4071553479127294	0.0	0.9248941856437071	-0.36712579761606307	0.0	0.9402135063221134	-0.30818689140546024	0.0	0.8709018543079922	-0.4078439105082728	0.0	0.9198054913381367	-0.3674595349279391	0.0	0.9322435157355743	-0.31449579317981324	0.0
23	0.771488469601677	0.9499667678906898	-0.4873866879641122	0.0	0.953325094049047	-0.48919461115848145	0.0	1.021324036752771	-0.45988002547828954	0.0	1.029543651550099	-0.550442376867576	0.0	1.0436419767344922	-0.5826072055647785	0.0	1.0439998113996756	-0.5816441980128373	0.0	1.0257571164241652	-0.5681124097745401	0.0	0.9489258136423486	-0.48454297850646394	0.0	1.0159539669434487	-0.46131380495527063	0.0	1.027026953930853	-0.549113298537251	0.0	1.0432338165454482	-0.5756770987950115	0.0	1.041894013951711	-0.5802620428385135	0.0	1.024586195225724	-0.5692086347556943	0.0	0.8554027354063405	-0.3910226863336949	0.0	0.8147072131823494	-0.34651524378679815	0.0	0.8529661526307697	-0.35099076575063487	0.0	0.8656205921138759	-0.3981014079963187	0.0	0.9195335692796787	-0.3611171192917603	0.0	0.9400596137610517	-0.30483500241496153	0.0	0.8618952313141439	-0.39940575789258126	0.0	0.9139798782697541	-0.36233508061041597	0.0	0.9319265999324102	-0.3112416047410903	0.0
24	0.8050314465408803	0.9522976963692222	-0.4665725800855569	0.0	0.9566848998428716	-0.4675037228677437	0.0	1.005361549528702	-0.40801926406526134	0.0	1.0328756647457624	-0.4864415546227768	0.0	1.0530901067317986	-0.5087444375732605	0.0	1.0546434280273038	-0.5096456049486803	0.0	1.0329758573905545	-0.5035686111112082	0.0	0.9503769597758447	-0.4638252963151273	0.0	1.0000608325016682	-0.4110914748124933	0.0	1.0296913348700383	-0.48483472462989496	0.0	1.0500208704586904	-0.5016441155729239	0.0	1.0489372507021688	-0.5080515025521221	0.0	1.0327923138548956	-0.5045229880909431	0.0	0.8480256803968511	-0.39069540796409213	0.0	0.8004236971288382	-0.3542097703557216	0.0	0.8387003861775003	-0.35269760386862276	0.0	0.8602314738944291	-0.39583787079034566	0.0	0.9172971847499976	-0.3592590570956007	0.0	0.93945943286457	-0.3064932470817096	0.0	0.8565121857049808	-0.3984139791555546	0.0	0.9116370654886328	-0.36298760313182926	0.0	0.93320375337146	-0.3140904785560024	0.0
25	0.8385744234800837	0.9562190084663352	-0.44544893684477316	0.0	0.9613794004831046	-0.44503163635410303	0.0	0.9809958898666538	-0.3673881572371228	0.0	1.02747880193479	-0.42721310844229615	0.0	1.052657544687077	-0.4369793345319091	0.0	1.0552073930708405	-0.4404604360528163	0.0	1.0316026759082746	-0.4425155772919233	0.0	0.9532465784819204	-0.44331722272925783	0.0	0.9764222379609154	-0.3715580853850578	0.0	1.0237555744256799	-0.4253957186228264	0.0	1.046716012472158	-0.4314767352190517	0.0	1.0460882055924683	-0.438644590214108	0.0	1.0324016231002515	-0.4431006679839888	0.0	0.8456912263551699	-0.3973606772390194	0.0	0.7929254431497823	-0.3727288674743304	0.0	0.8287495845920628	-0.364001161429957	0.0	0.8598315585734189	-0.39941394159523325	0.0	0.9167122588302012	-0.3599193607403277	0.0	0.9348257734433543	-0.3116206415136795	0.0	0.8558160918263633	-0.40386639310893835	0.0	0.9134219609148161	-0.36876236216166675	0.0	0.9347324308352972	-0.32253108265776004	0.0
26	0.8721174004192871	0.9599505787424882	-0.4230938460849592	0.0	0.9651890830214983	-0.42134241662035005	0.0	0.9518440706234508	-0.34113178959028306	0.0	1.0122384438893994	-0.37664055715056316	0.0	1.0388210660697383	-0.37370391480269183	0.0	1.042176703705151	-0.3801787473307154	0.0	1.0196890322816707	-0.3886083672367234	0.0	0.9561819102487454	-0.42190737466924877	0.0	0.9489896848534559	-0.34549042609124775	0.0	1.008494412172023	-0.37485934916405983	0.0	1.0308572028601606	-0.3722186681582264	0.0	1.0307037113481168	-0.37884000913302734	0.0	1.0214531857469558	-0.3887116519596302	0.0	0.8497990677458158	-0.4092741309899314	0.0	0.7955832818134287	-0.39951520937489854	0.0	0.8259955918973749	-0.38383461351459625	0.0	0.8647991421080116	-0.4072219205326493	0.0	0.9160616861020114	-0.36192409750209426	0.0	0.9243994555103672	-0.3193908768877053	0.0	0.8609464482643283	-0.4137926666911019	0.0	0.9203533032517736	-0.37920575922508276	0.0	0.9369266922185272	-0.33655904759823885	0.0
27	0.9056603773584905	0.9614669728728731	-0.3997967074923293	0.0	0.9658001566001273	-0.39726580526674854	0.0	0.922037542145631	-0.32995049138593185	0.0	0.9874049919368503	-0.3378391950864131	0.0	1.010411087873671	-0.32483587992872215	0.0	1.0142873618928157	-0.33420878236376195	0.0	0.9968718720577725	-0.34510517271177427	0.0	0.9575717686927345	-0.3994529198666657	0.0	0.9219189326022408	-0.3334470180213997	0.0	0.9844898599766906	-0.33619914050720945	0.0	1.0022710602640712	-0.3290436863624401	0.0	1.0022046734029393	-0.33429108953266795	0.0	0.9996841296715371	-0.34448285483904606	0.0	0.861249725194792	-0.42389766393785583	0.0	0.8107105926589555	-0.43025446553253377	0.0	0.8329244463795571	-0.4096004252206705	0.0	0.8750913432159774	-0.4171195152015376	0.0	0.9139952125152144	-0.3648619986529285	0.0	0.9089768063949144	-0.3299732601334935	0.0	0.8725708186628065	-0.4255670124474996	0.0	0.9328027837338199	-0.3934612619457049	0.0	0.9411435577689219	-0.35626230968076705	0.0
